<svg width="64" height="64" viewBox="0 0 64 64" fill="none" xmlns="http://www.w3.org/2000/svg">
<path d="M30.675 33.2313L46.6312 53.6188C46.8187 53.8625 47.1125 54 47.4187 54L52.25 54C52.6687 54 52.9 53.5188 52.6437 53.1938L36.0562 32L52.6437 10.8063C52.7014 10.7326 52.7372 10.6441 52.747 10.551C52.7568 10.458 52.7403 10.364 52.6992 10.2799C52.6581 10.1958 52.5942 10.1249 52.5148 10.0754C52.4353 10.0259 52.3436 9.9998 52.25 10L47.4187 10C47.1125 10 46.8187 10.1437 46.6312 10.3812L30.675 30.7625C30.1062 31.4938 30.1062 32.5063 30.675 33.2313ZM11.675 33.2313L27.6312 53.6188C27.8187 53.8625 28.1125 54 28.4187 54L33.25 54C33.6687 54 33.9 53.5188 33.6437 53.1938L17.0562 32L33.6437 10.8063C33.7014 10.7326 33.7372 10.6441 33.747 10.551C33.7568 10.458 33.7403 10.364 33.6992 10.2799C33.6581 10.1958 33.5942 10.1249 33.5148 10.0754C33.4353 10.0259 33.3436 9.9998 33.25 10L28.4187 10C28.1125 10 27.8187 10.1438 27.6312 10.3813L11.675 30.7625C11.1062 31.4938 11.1062 32.5063 11.675 33.2313Z" fill="black" fill-opacity="0.5"/>
</svg>
