<svg width="64" height="64" viewBox="0 0 64 64" fill="none" xmlns="http://www.w3.org/2000/svg">
<path d="M33.325 30.7687L17.3688 10.3813C17.1813 10.1375 16.8875 10 16.5813 10H11.75C11.3313 10 11.1 10.4812 11.3563 10.8062L27.9438 32L11.3563 53.1937C11.2986 53.2674 11.2628 53.3559 11.253 53.449C11.2431 53.542 11.2597 53.636 11.3008 53.7201C11.3419 53.8042 11.4058 53.8751 11.4852 53.9246C11.5647 53.9741 11.6564 54.0002 11.75 54H16.5813C16.8875 54 17.1813 53.8563 17.3688 53.6188L33.325 33.2375C33.8938 32.5062 33.8938 31.4937 33.325 30.7687ZM52.325 30.7687L36.3688 10.3813C36.1813 10.1375 35.8875 10 35.5813 10H30.75C30.3313 10 30.1 10.4812 30.3563 10.8062L46.9438 32L30.3563 53.1937C30.2986 53.2674 30.2628 53.3559 30.253 53.449C30.2431 53.542 30.2597 53.636 30.3008 53.7201C30.3419 53.8042 30.4058 53.8751 30.4852 53.9246C30.5647 53.9741 30.6564 54.0002 30.75 54H35.5813C35.8875 54 36.1813 53.8563 36.3688 53.6188L52.325 33.2375C52.8938 32.5062 52.8938 31.4937 52.325 30.7687Z" fill="black" fill-opacity="0.5"/>
</svg>
