<svg width="64" height="64" viewBox="0 0 64 64" fill="none" xmlns="http://www.w3.org/2000/svg">
<path d="M59.1562 31.3108L33.4124 5.58576C33.2271 5.40004 33.0069 5.25269 32.7645 5.15216C32.5222 5.05163 32.2623 4.99988 32 4.99988C31.7376 4.99988 31.4777 5.05163 31.2354 5.15216C30.993 5.25269 30.7728 5.40004 30.5875 5.58576L4.8437 31.3108C4.0937 32.0608 3.6687 33.0795 3.6687 34.142C3.6687 36.3483 5.46245 38.142 7.6687 38.142H10.3812V56.4983C10.3812 57.6045 11.275 58.4983 12.3812 58.4983H28V44.4983H35V58.4983H51.6187C52.725 58.4983 53.6187 57.6045 53.6187 56.4983V38.142H56.3312C57.3937 38.142 58.4124 37.7233 59.1624 36.967C60.7187 35.4045 60.7187 32.8733 59.1562 31.3108Z" fill="#1A1A1A"/>
</svg>
