<svg width="506" height="496" viewBox="0 0 506 496" fill="none" xmlns="http://www.w3.org/2000/svg">
<path d="M401.426 28.6174L438.616 31.8494L438.592 32.1203L437.094 32.419L437.276 33.3343L438.508 33.0887L438.4 34.34L439.329 34.4208L439.462 32.8986L439.728 32.8454L447.027 69.4553L444.575 69.9441L444.94 71.7746L447.392 71.2857L454.691 107.896L452.24 108.384L452.604 110.215L455.056 109.726L462.355 146.336L459.904 146.825L460.268 148.655L462.72 148.166L470.019 184.776L467.568 185.265L467.75 186.18L467.758 186.218L467.766 186.255L467.977 187.164L470.412 186.601L478.831 222.969L476.395 223.533L476.816 225.352L479.252 224.788L487.67 261.156L485.235 261.72L485.656 263.539L488.091 262.975L496.51 299.344L494.074 299.907L494.495 301.726L496.931 301.162L505.349 337.531L505.085 337.592L504.337 336.259L503.523 336.716L504.138 337.811L502.914 338.095L503.124 339.004L504.613 338.659L504.746 338.896L472.183 357.151L470.961 354.971L469.333 355.883L470.555 358.064L437.993 376.319L436.77 374.138L435.142 375.051L436.365 377.232L403.802 395.486L402.58 393.306L400.951 394.218L402.174 396.399L369.612 414.654L368.389 412.473L367.575 412.93L367.541 412.948L367.509 412.968L366.709 413.449L367.998 415.592L336.011 434.837L334.722 432.694L333.122 433.657L334.411 435.799L302.424 455.044L301.135 452.902L299.536 453.864L300.825 456.006L268.837 475.251L267.549 473.109L265.949 474.071L267.238 476.214L235.251 495.459L235.111 495.226L236.147 494.103L235.462 493.47L234.61 494.393L233.962 493.317L233.162 493.798L233.95 495.107L233.766 495.307L206.342 469.979L208.038 468.142L206.667 466.876L204.971 468.713L177.547 443.385L179.243 441.548L177.872 440.282L176.176 442.119L148.752 416.791L150.448 414.954L149.077 413.688L147.381 415.524L119.957 390.197L121.653 388.36L120.968 387.727L120.939 387.701L120.91 387.676L120.206 387.064L118.567 388.952L90.3789 364.477L92.018 362.589L90.6086 361.366L88.9695 363.253L60.7818 338.779L62.4208 336.891L61.0114 335.667L59.3724 337.555L31.1846 313.081L32.8237 311.193L31.4143 309.969L29.7752 311.857L1.58742 287.382L1.76567 287.177L3.15356 287.816L3.54389 286.968L2.40296 286.443L3.22647 285.495L2.52178 284.883L1.52002 286.036L1.27308 285.923L16.8867 252.014L19.1575 253.06L19.9382 251.365L17.6674 250.319L33.2811 216.411L35.5519 217.456L36.3326 215.761L34.0617 214.715L49.6754 180.807L51.9462 181.853L52.7269 180.157L50.4561 179.112L66.0697 145.203L68.3406 146.249L68.7309 145.401L68.747 145.367L68.7619 145.331L69.1261 144.472L66.8242 143.496L81.3904 109.125L83.6923 110.101L84.4206 108.382L82.1187 107.407L96.6849 73.0355L98.9868 74.011L99.7151 72.2924L97.4132 71.3169L111.979 36.9457L114.281 37.9212L115.01 36.2027L112.708 35.2272L127.274 0.855932L127.524 0.962012L127.345 2.47945L128.272 2.58873L128.419 1.3413L129.576 1.83142L129.94 0.972138L128.533 0.375939L128.565 0.105929L165.638 4.47718L165.346 6.95997L167.199 7.17854L167.492 4.69573L204.566 9.06697L204.273 11.5498L206.127 11.7683L206.419 9.28554L243.493 13.6568L243.2 16.1396L245.054 16.3581L245.347 13.8753L282.42 18.2466L282.127 20.7294L283.054 20.8387L283.092 20.8431L283.131 20.8465L284.06 20.9273L284.277 18.4367L321.467 21.6686L321.25 24.1593L323.11 24.3208L323.326 21.8302L360.517 25.0622L360.3 27.5528L362.16 27.7144L362.376 25.2238L399.566 28.4558L399.35 30.9464L401.209 31.108L401.426 28.6174Z" stroke="black" stroke-width="5" stroke-dasharray="2 40"/>
</svg>
