<svg width="24" height="24" viewBox="0 0 24 24" fill="none" xmlns="http://www.w3.org/2000/svg">
<path d="M11.9971 16.245L14.3071 17.923L12.0021 21.095L9.69412 17.918C10.4516 17.3465 11.2271 16.7995 11.9971 16.2445M11.2851 3.53252L9.21262 2.25602L9.02662 4.68302L10.7316 5.23702L11.2851 3.53252ZM5.82962 7.00052L3.46362 6.42702L4.03712 8.79302H5.82962V7.00052ZM9.57562 8.79302H6.72062V4.87152L10.4556 6.08502C10.1786 6.99302 9.87262 7.89152 9.57562 8.79302ZM19.9496 8.79302L20.5231 6.42702L18.1576 7.00052V8.79302H19.9496ZM14.9651 4.67602L14.7796 2.24902L12.7066 3.52552L13.2606 5.23002L14.9651 4.67602ZM14.4181 8.79252L13.5361 6.07752L17.2656 4.86602V8.79252C16.3166 8.81002 15.3671 8.79652 14.4181 8.79252ZM17.6241 18.659L20.0511 18.473L18.7746 16.4005L17.0701 16.9545L17.6241 18.659ZM19.9991 12.646L22.2501 11.72L20.3956 10.1435L18.9456 11.1965L19.9991 12.646ZM15.9151 13.398L18.2246 11.72L20.5296 14.8925L16.7946 16.106C16.4846 15.209 16.2051 14.302 15.9151 13.398ZM7.52212 19.496L8.44862 21.747L10.0256 19.892L8.97212 18.4425L7.52212 19.496ZM13.9751 19.897L15.5516 21.751L16.4781 19.5005L15.0281 18.447L13.9751 19.897ZM3.60462 10.147L1.75012 11.724L4.00112 12.65L5.05462 11.2L3.60462 10.147ZM5.21712 16.4075L3.94062 18.4805L6.36762 18.6655L6.92162 16.9615L5.21712 16.4075ZM8.07962 13.3985L7.19712 16.1135L3.46812 14.902L5.77612 11.725C6.55412 12.269 7.31412 12.8375 8.07962 13.3985Z" stroke="black" stroke-width="0.5" stroke-linecap="round" stroke-linejoin="round"/>
</svg>
