<svg width="24" height="24" viewBox="0 0 24 24" fill="none" xmlns="http://www.w3.org/2000/svg">
<path d="M11.997 16.245L14.307 17.923L12.002 21.095L9.694 17.918C10.4515 17.3465 11.227 16.7995 11.997 16.2445M11.285 3.53252L9.2125 2.25602L9.0265 4.68302L10.7315 5.23702L11.285 3.53252ZM5.8295 7.00052L3.4635 6.42702L4.037 8.79302H5.8295V7.00052ZM9.5755 8.79302H6.7205V4.87152L10.4555 6.08502C10.1785 6.99302 9.8725 7.89152 9.5755 8.79302ZM19.9495 8.79302L20.523 6.42702L18.1575 7.00052V8.79302H19.9495ZM14.965 4.67602L14.7795 2.24902L12.7065 3.52552L13.2605 5.23002L14.965 4.67602ZM14.418 8.79252L13.536 6.07752L17.2655 4.86602V8.79252C16.3165 8.81002 15.367 8.79652 14.418 8.79252ZM17.624 18.659L20.051 18.473L18.7745 16.4005L17.07 16.9545L17.624 18.659ZM19.999 12.646L22.25 11.72L20.3955 10.1435L18.9455 11.1965L19.999 12.646ZM15.915 13.398L18.2245 11.72L20.5295 14.8925L16.7945 16.106C16.4845 15.209 16.205 14.302 15.915 13.398ZM7.522 19.496L8.4485 21.747L10.0255 19.892L8.972 18.4425L7.522 19.496ZM13.975 19.897L15.5515 21.751L16.478 19.5005L15.028 18.447L13.975 19.897ZM3.6045 10.147L1.75 11.724L4.001 12.65L5.0545 11.2L3.6045 10.147ZM5.217 16.4075L3.9405 18.4805L6.3675 18.6655L6.9215 16.9615L5.217 16.4075ZM8.0795 13.3985L7.197 16.1135L3.468 14.902L5.776 11.725C6.554 12.269 7.314 12.8375 8.0795 13.3985Z" stroke="white" stroke-width="0.5" stroke-linecap="round" stroke-linejoin="round"/>
</svg>
