<svg width="45" height="47" viewBox="0 0 45 47" fill="none" xmlns="http://www.w3.org/2000/svg">
<path d="M44.6224 25.8564L23.8786 1.6433C23.6911 1.42421 23.4593 1.24849 23.1989 1.12806C22.9385 1.00764 22.6555 0.945312 22.3692 0.945312C22.083 0.945312 21.8 1.00764 21.5396 1.12806C21.2792 1.24849 21.0474 1.42421 20.8599 1.6433L0.122374 25.8564C0.05971 25.9294 0.0190781 26.0191 0.00531956 26.1148C-0.00843899 26.2105 0.00525533 26.3082 0.0447712 26.3963C0.084287 26.4843 0.147959 26.559 0.228203 26.6114C0.308447 26.6639 0.40188 26.6918 0.497375 26.692H5.55987C5.84737 26.692 6.12238 26.5654 6.31612 26.3438L19.9974 10.3727V46.0182C19.9974 46.2967 20.2224 46.5246 20.4974 46.5246H24.2474C24.5224 46.5246 24.7474 46.2967 24.7474 46.0182V10.3727L38.4286 26.3438C38.6161 26.5654 38.8911 26.692 39.1849 26.692H44.2474C44.6724 26.692 44.9036 26.1856 44.6224 25.8564Z" fill="white"/>
</svg>
