<svg width="45" height="45" viewBox="0 0 45 45" fill="none" xmlns="http://www.w3.org/2000/svg">
<path d="M44.6223 24.5954L23.8785 0.689145C23.691 0.472825 23.4592 0.299337 23.1988 0.180436C22.9383 0.0615355 22.6554 0 22.3691 0C22.0828 0 21.7999 0.0615355 21.5395 0.180436C21.2791 0.299337 21.0473 0.472825 20.8598 0.689145L0.122252 24.5954C0.0595879 24.6675 0.018956 24.756 0.00519749 24.8505C-0.00856106 24.945 0.00513326 25.0415 0.0446491 25.1284C0.0841649 25.2153 0.147837 25.2891 0.228081 25.3408C0.308325 25.3926 0.401758 25.4202 0.497252 25.4204H5.55975C5.84725 25.4204 6.12225 25.2954 6.316 25.0766L19.9973 9.30789V44.5016C19.9973 44.7766 20.2223 45.0016 20.4973 45.0016H24.2473C24.5223 45.0016 24.7473 44.7766 24.7473 44.5016V9.30789L38.4285 25.0766C38.616 25.2954 38.891 25.4204 39.1848 25.4204H44.2473C44.6723 25.4204 44.9035 24.9204 44.6223 24.5954Z" fill="black"/>
</svg>
